<svg width="18" height="18" viewBox="0 0 18 18" fill="none" xmlns="http://www.w3.org/2000/svg">
<path d="M17.173 13.1878C16.6406 12.6554 15.9328 12.3622 15.1799 12.3622C14.5698 12.3622 13.9893 12.5548 13.5078 12.911L11.2907 10.694L15.8241 6.16061C16.862 5.12273 16.862 3.43389 15.824 2.3959L15.4142 1.98633L8.99864 8.40197L2.58307 1.98633L2.17321 2.396C1.13533 3.43392 1.13533 5.12273 2.17321 6.16065L6.70659 10.6941L4.48956 12.9111C4.00802 12.5548 3.42752 12.3623 2.81742 12.3623C2.06451 12.3623 1.35664 12.6555 0.824266 13.1879C-0.274755 14.2869 -0.274755 16.0752 0.824266 17.1742C1.35667 17.7066 2.06451 17.9998 2.81742 17.9998C3.5699 17.9998 4.27732 17.7069 4.80962 17.1752L8.99867 12.9861L13.1877 17.1751C13.72 17.7069 14.4274 17.9998 15.1799 17.9998C15.9328 17.9998 16.6407 17.7065 17.173 17.1741C18.2721 16.0751 18.2721 14.2869 17.173 13.1878ZM15.0783 5.41488L8.99867 11.4946L8.19816 10.6941L15.3637 3.52853C15.6832 4.13529 15.5881 4.90511 15.0783 5.41488ZM5.20696 13.6852L7.45239 11.4398L8.2529 12.2403L5.61832 14.8749C5.57329 14.459 5.43614 14.0513 5.20696 13.6852ZM2.91899 5.41488C2.40918 4.90508 2.31409 4.13529 2.63366 3.5285L8.2529 9.14774L7.45239 9.94829L2.91899 5.41488ZM1.57004 16.4284C0.882274 15.7406 0.882274 14.6214 1.57004 13.9336C1.90325 13.6004 2.34625 13.4169 2.81742 13.4169C3.28862 13.4169 3.73162 13.6004 4.0648 13.9336C4.75256 14.6214 4.75256 15.7406 4.0648 16.4284C3.73159 16.7615 3.28862 16.9451 2.81742 16.9451C2.34625 16.9451 1.90321 16.7615 1.57004 16.4284ZM10.545 11.4398L12.7904 13.6852C12.5612 14.0513 12.4241 14.459 12.379 14.8749L9.74444 12.2403L10.545 11.4398ZM16.4273 16.4284C16.0941 16.7616 15.6511 16.9451 15.1799 16.9451C14.7087 16.9451 14.2657 16.7615 13.9325 16.4284C13.2447 15.7406 13.2447 14.6214 13.9325 13.9336C14.2657 13.6004 14.7087 13.4169 15.1799 13.4169C15.6511 13.4169 16.0941 13.6004 16.4273 13.9336C17.1151 14.6214 17.1151 15.7406 16.4273 16.4284Z" fill="#111747"/>
<path d="M8.59869 3.61544H9.65633C9.89617 3.61544 10.0913 3.81056 10.0913 4.0504C10.0913 4.29023 9.89617 4.48535 9.65633 4.48535H7.37725V5.54004H8.47061V6.25108H9.5253V5.54004H9.65636C10.4778 5.54004 11.146 4.87179 11.146 4.0504C11.146 3.229 10.4778 2.56075 9.65636 2.56075H8.59872C8.37952 2.56075 8.20117 2.3824 8.20117 2.1632C8.20117 1.944 8.37949 1.76569 8.59872 1.76569H10.3844V0.711001H9.5253V0H8.47061V0.716626C7.72962 0.781701 7.14648 1.40566 7.14648 2.16324C7.14645 2.96399 7.79793 3.61544 8.59869 3.61544Z" fill="#111747"/>
</svg>
