<svg width="20" height="20" viewBox="0 0 20 20" fill="none" xmlns="http://www.w3.org/2000/svg">
<path d="M16.875 10.79V4.375C16.875 3.87772 16.6775 3.40081 16.3258 3.04917C15.9742 2.69754 15.4973 2.5 15 2.5H13.125V1.875C13.125 1.70924 13.0592 1.55027 12.9419 1.43306C12.8247 1.31585 12.6658 1.25 12.5 1.25C12.3342 1.25 12.1753 1.31585 12.0581 1.43306C11.9408 1.55027 11.875 1.70924 11.875 1.875V2.5H6.25V1.875C6.25 1.70924 6.18415 1.55027 6.06694 1.43306C5.94973 1.31585 5.79076 1.25 5.625 1.25C5.45924 1.25 5.30027 1.31585 5.18306 1.43306C5.06585 1.55027 5 1.70924 5 1.875V2.5H3.125C2.62772 2.5 2.15081 2.69754 1.79917 3.04917C1.44754 3.40081 1.25 3.87772 1.25 4.375V15C1.25 15.4973 1.44754 15.9742 1.79917 16.3258C2.15081 16.6775 2.62772 16.875 3.125 16.875H10.79C11.1553 17.3997 11.6312 17.8379 12.1842 18.1587C12.7372 18.4795 13.3538 18.6751 13.9906 18.7317C14.6274 18.7883 15.2689 18.7045 15.8698 18.4862C16.4707 18.268 17.0165 17.9206 17.4685 17.4685C17.9206 17.0165 18.268 16.4707 18.4862 15.8698C18.7045 15.2689 18.7883 14.6274 18.7317 13.9906C18.6751 13.3538 18.4795 12.7372 18.1587 12.1842C17.8379 11.6312 17.3997 11.1553 16.875 10.79ZM3.125 3.75H5V4.08625C5 4.25201 5.06585 4.41098 5.18306 4.52819C5.30027 4.6454 5.45924 4.71125 5.625 4.71125C5.79076 4.71125 5.94973 4.6454 6.06694 4.52819C6.18415 4.41098 6.25 4.25201 6.25 4.08625V3.75H11.875V4.08625C11.875 4.25201 11.9408 4.41098 12.0581 4.52819C12.1753 4.6454 12.3342 4.71125 12.5 4.71125C12.6658 4.71125 12.8247 4.6454 12.9419 4.52819C13.0592 4.41098 13.125 4.25201 13.125 4.08625V3.75H15C15.1658 3.75 15.3247 3.81585 15.4419 3.93306C15.5592 4.05027 15.625 4.20924 15.625 4.375V6.25H2.5V4.375C2.5 4.20924 2.56585 4.05027 2.68306 3.93306C2.80027 3.81585 2.95924 3.75 3.125 3.75ZM3.125 15.625C2.95924 15.625 2.80027 15.5592 2.68306 15.4419C2.56585 15.3247 2.5 15.1658 2.5 15V7.5H15.625V10.1875C14.8698 9.96183 14.0677 9.94462 13.3035 10.1377C12.5394 10.3308 11.8417 10.727 11.2843 11.2843C10.727 11.8417 10.3308 12.5394 10.1377 13.3035C9.94462 14.0677 9.96183 14.8698 10.1875 15.625H3.125ZM14.375 17.5C13.7569 17.5 13.1527 17.3167 12.6388 16.9733C12.1249 16.63 11.7244 16.1419 11.4879 15.5709C11.2514 14.9999 11.1895 14.3715 11.31 13.7653C11.4306 13.1592 11.7283 12.6023 12.1653 12.1653C12.6023 11.7283 13.1592 11.4306 13.7653 11.31C14.3715 11.1895 14.9999 11.2514 15.5709 11.4879C16.1419 11.7244 16.63 12.1249 16.9733 12.6388C17.3167 13.1527 17.5 13.7569 17.5 14.375C17.499 15.2035 17.1694 15.9978 16.5836 16.5836C15.9978 17.1694 15.2035 17.499 14.375 17.5Z" fill="#111747"/>
<path d="M15.9044 14.4406L15 13.9887V12.5C15 12.3342 14.9342 12.1753 14.8169 12.0581C14.6997 11.9408 14.5408 11.875 14.375 11.875C14.2092 11.875 14.0503 11.9408 13.9331 12.0581C13.8158 12.1753 13.75 12.3342 13.75 12.5V14.375C13.7499 14.4911 13.7823 14.605 13.8433 14.7038C13.9044 14.8026 13.9917 14.8825 14.0956 14.9344L15.3456 15.5594C15.494 15.6335 15.6657 15.6456 15.823 15.5931C15.9009 15.5671 15.9729 15.526 16.0349 15.4722C16.0969 15.4183 16.1477 15.3528 16.1844 15.2794C16.2211 15.2059 16.2429 15.126 16.2487 15.044C16.2545 14.9621 16.2441 14.8799 16.2181 14.802C16.1921 14.7241 16.151 14.6521 16.0972 14.5901C16.0433 14.5281 15.9778 14.4773 15.9044 14.4406Z" fill="#111747"/>
<path d="M6.25 9.375H5C4.83424 9.375 4.67527 9.44085 4.55806 9.55806C4.44085 9.67527 4.375 9.83424 4.375 10C4.375 10.1658 4.44085 10.3247 4.55806 10.4419C4.67527 10.5592 4.83424 10.625 5 10.625H6.25C6.41576 10.625 6.57473 10.5592 6.69194 10.4419C6.80915 10.3247 6.875 10.1658 6.875 10C6.875 9.83424 6.80915 9.67527 6.69194 9.55806C6.57473 9.44085 6.41576 9.375 6.25 9.375Z" fill="#111747"/>
<path d="M10.625 10C10.625 9.83424 10.5592 9.67527 10.4419 9.55806C10.3247 9.44085 10.1658 9.375 10 9.375H8.75C8.58424 9.375 8.42527 9.44085 8.30806 9.55806C8.19085 9.67527 8.125 9.83424 8.125 10C8.125 10.1658 8.19085 10.3247 8.30806 10.4419C8.42527 10.5592 8.58424 10.625 8.75 10.625H10C10.1658 10.625 10.3247 10.5592 10.4419 10.4419C10.5592 10.3247 10.625 10.1658 10.625 10Z" fill="#111747"/>
<path d="M6.25 12.5H5C4.83424 12.5 4.67527 12.5658 4.55806 12.6831C4.44085 12.8003 4.375 12.9592 4.375 13.125C4.375 13.2908 4.44085 13.4497 4.55806 13.5669C4.67527 13.6842 4.83424 13.75 5 13.75H6.25C6.41576 13.75 6.57473 13.6842 6.69194 13.5669C6.80915 13.4497 6.875 13.2908 6.875 13.125C6.875 12.9592 6.80915 12.8003 6.69194 12.6831C6.57473 12.5658 6.41576 12.5 6.25 12.5Z" fill="#111747"/>
</svg>
