<svg width="44" height="44" viewBox="0 0 44 44" fill="none" xmlns="http://www.w3.org/2000/svg">
<g clip-path="url(#clip0_1882_7070)">
<path d="M39.6642 9.25084C43.0359 5.89258 40.6182 -0.0112415 35.8072 1.63204e-05C30.9965 -0.0113274 28.5786 5.89352 31.9504 9.25084C31.6902 9.39032 31.4383 9.54329 31.1958 9.70915C25.8232 5.98195 18.1769 5.98204 12.8043 9.70915C12.5618 9.54338 12.3099 9.39032 12.0497 9.25084C15.4212 5.89258 13.0036 -0.0112415 8.19268 1.63204e-05C3.3819 -0.0113274 0.963961 5.89352 4.33589 9.25084C1.75768 10.6325 0 13.3532 0 16.4771V19.2385C0 19.9504 0.577156 20.5276 1.28906 20.5276H5.77002C4.48972 27.3189 7.99872 34.5924 14.085 37.8331C13.9043 38.5085 13.8073 39.2178 13.8073 39.9494V42.711C13.8073 43.4229 14.3845 44 15.0964 44H28.9037C29.6156 44 30.1928 43.4229 30.1928 42.711V39.9495C30.1928 39.2179 30.0958 38.5086 29.9151 37.8332C36.0016 34.5922 39.5103 27.3189 38.2301 20.5276H42.7109C43.4228 20.5276 44 19.9505 44 19.2386V16.4772C44 13.3532 42.2423 10.6325 39.6642 9.25084ZM35.8073 2.57814C37.3806 2.57814 38.6604 3.85809 38.6604 5.43127C38.5038 9.2163 33.1103 9.21518 32.9542 5.43127C32.9542 3.85801 34.2341 2.57814 35.8073 2.57814ZM8.19268 2.57814C9.76585 2.57814 11.0458 3.85809 11.0458 5.43127C10.8891 9.2163 5.4957 9.21518 5.33955 5.43127C5.33955 3.85801 6.61951 2.57814 8.19268 2.57814ZM2.57812 17.9495V16.4772C2.88741 9.0268 13.5008 9.03256 13.8073 16.4772V17.9495H2.57812ZM27.6146 41.4219H16.3854V39.9495C16.6947 32.4992 27.3081 32.5049 27.6146 39.9495V41.4219H27.6146ZM19.1469 28.9036C19.1469 27.3304 20.4268 26.0505 22 26.0505C25.785 26.2073 25.784 31.6006 22 31.7568C20.4267 31.7568 19.1469 30.4769 19.1469 28.9036ZM28.8558 35.4693C28.1035 34.322 27.0713 33.3741 25.857 32.7233C29.2287 29.365 26.811 23.4611 22 23.4725C17.1892 23.4611 14.7713 29.366 18.1432 32.7233C16.9288 33.3741 15.8967 34.3221 15.1444 35.4693C9.97305 32.5848 7.12241 26.3552 8.39489 20.5276H15.0965C15.8084 20.5276 16.3855 19.9505 16.3855 19.2386V16.4772C16.3855 14.6234 15.7664 12.9118 14.7244 11.5374C19.0379 8.80586 24.9624 8.80595 29.2759 11.5374C28.2339 12.9118 27.6147 14.6234 27.6147 16.4772V19.2386C27.6147 19.9505 28.1919 20.5276 28.9038 20.5276H35.6054C36.8776 26.3558 34.0272 32.5843 28.8558 35.4693ZM41.4219 17.9495H30.1927V16.4772C30.502 9.0268 41.1153 9.03256 41.4219 16.4772V17.9495Z" fill="#0E7490"/>
</g>
<defs>
<clipPath id="clip0_1882_7070">
<rect width="44" height="44" fill="white"/>
</clipPath>
</defs>
</svg>
